<svg xmlns="http://www.w3.org/2000/svg" viewBox="0 0 512 512" width="512" height="512">
  <defs>
    <linearGradient id="leafGrad" x1="0%" y1="0%" x2="100%" y2="100%">
      <stop offset="0%" stop-color="#34d399" />
      <stop offset="100%" stop-color="#059669" />
    </linearGradient>
    <linearGradient id="bgGrad" x1="0%" y1="0%" x2="100%" y2="100%">
      <stop offset="0%" stop-color="#0f172a" />
      <stop offset="100%" stop-color="#1e293b" />
    </linearGradient>
  </defs>
  <!-- Background -->
  <rect width="512" height="512" rx="128" fill="url(#bgGrad)" />
  <!-- Outer Glow Ring -->
  <circle cx="256" cy="256" r="190" fill="none" stroke="#10b981" stroke-width="8" stroke-dasharray="16 16" opacity="0.3" />
  <circle cx="256" cy="256" r="160" fill="none" stroke="#10b981" stroke-width="4" opacity="0.5" />
  <!-- Leaf Graphics -->
  <path d="M256,120 C340,120 370,180 370,256 C370,332 310,392 256,392 C202,392 142,332 142,256 C142,180 172,120 256,120 Z" fill="url(#leafGrad)" />
  <!-- Inner Detail -->
  <path d="M256,120 C256,200 220,290 170,330" fill="none" stroke="#ffffff" stroke-width="8" stroke-linecap="round" opacity="0.5" />
  <path d="M256,220 C280,240 310,240 330,220" fill="none" stroke="#ffffff" stroke-width="6" stroke-linecap="round" opacity="0.4" />
  <path d="M256,280 C280,300 305,300 325,280" fill="none" stroke="#ffffff" stroke-width="6" stroke-linecap="round" opacity="0.4" />
  <path d="M256,120 L256,392" fill="none" stroke="#ffffff" stroke-width="6" stroke-linecap="round" opacity="0.6" />
</svg>
